<svg xmlns="http://www.w3.org/2000/svg" xmlns:xlink="http://www.w3.org/1999/xlink" viewBox="0 0 750 500">
    <defs>
        <style>
            .cls-1{fill:none;}.cls-2{isolation:isolate;}.cls-3{fill:#fffbf3;}.cls-4{opacity:0.94;}.cls-5{clip-path:url(#clip-path);}.cls-6{opacity:0.74;}.cls-6,.cls-8{mix-blend-mode:multiply;}.cls-7,.cls-8{fill:#b39ddb;}
        </style>
        <clipPath id="clip-path">
            <rect class="cls-1" width="750" height="500" transform="translate(750 500) rotate(180)"/>
        </clipPath>
    </defs>
    <g class="cls-2">
        <g id="BACKGROUND">
            <rect class="cls-3" width="750" height="500" transform="translate(750 500) rotate(180)"/>
            <g class="cls-4">
                <g class="cls-5">
                    <g class="cls-6">
                        <path class="cls-7"
                              d="M142.79,475.46C119.83,470,96,456.7,89.67,434c-8.94-32.31,21.35-62.5,24.19-95.91,1.87-21.9-8.65-43.53-24-59.24s-35.2-26.27-55.3-35.16c-8.5-3.76-17.31-7.4-24-13.84C-7.93,212-2.66,180.23,12.11,159.27s36.75-35.8,52.73-55.86C100.06,59.17,98.3-11.68,57.9-51.24A119.74,119.74,0,0,0,12.49-78.66C-6-84.92-26.6-86.95-45-80.31c-21.71,7.86-37.67,26.74-48.95,46.88-16.83,30.07-25.33,64-32.83,97.62C-150.48,170.72-165.86,280.59-153,389c5.49,46.46,16.72,93.61,43.74,131.81,32.41,45.8,85.64,74.63,141.06,83.44,60.89,9.68,147.13.39,196.51-40.07,22.85-18.72,26.23-41.07,2.87-62C207.12,480.72,172.33,482.49,142.79,475.46Z"/>
                        <path class="cls-8"
                              d="M727.87,42.07C711,101.65,657.56,149,596.51,159.3S469.83,143,432.6,93.47,387.78-25.92,412.71-82.6C464-199.32,676.13-246.06,719.46-102.2,733.32-56.17,741.17-5,727.87,42.07Z"/>
                        <path class="cls-8"
                              d="M802.72,303.62c-20.83-7.42-43.43-11.89-65.09-7.42-56.12,11.56-86.27,76.52-140.08,96.19-33,12.07-69.88,5.2-104.39,11.84-49,9.41-90.4,47.06-109.08,93.33s-15.83,99.75,2.95,146c9.39,23.13,23.65,45.7,45.74,57.31,23.61,12.4,52,10.3,78.32,6C577,696.21,640.38,674,703.18,651.42c76.54-27.58,157.66-59.91,216.62-118.31,49-48.51,24-108.13-14.76-155.95C878.28,344.14,842.86,317.93,802.72,303.62Z"/>
                        <path class="cls-8"
                              d="M35.55,310c14.1,14.6,22.91,36,17.14,55.49C44.41,393.46,9,411.64,11.88,440.63c1,10.34,7,19.41,12.87,28l22.34,32.88c6.48,9.54,13.24,20.13,12.16,31.61-1.59,16.94-19.24,27.48-35.64,32-16,4.43-33.67,5.75-48.92-.89s-26.4-20.53-34.55-35.13c-25.69-46-27.68-101.65-21.31-153.95,2.69-22.15,7-44.68,18.44-63.81C-54,296.78-34.13,275.71-15.1,278,1.59,280,24.33,298.4,35.55,310Z"/>
                        <path class="cls-8"
                              d="M840.64,363.27c-17.81-27.41-57.54-37.77-86.46-22.55C730.8,353,716.47,378.23,693.45,391.2c-19,10.72-41.7,11.9-63.16,15.94A229.73,229.73,0,0,0,557,434.53c-11.29,6.61-22.77,15.22-26.23,27.84-5.69,20.77,13,40.34,32.12,50.17C622.25,543,695,527.2,755.8,499.83c41-18.43,83.15-46.16,94.3-89.67"/>
                    </g>
                </g>
            </g>
        </g>
    </g>
</svg>
